<svg xmlns="http://www.w3.org/2000/svg" width="192" height="192" viewBox="0 0 192 192">
  <defs>
    <radialGradient id="bg" cx="50%" cy="50%" r="50%">
      <stop offset="0%" stop-color="#3a1a7e"/>
      <stop offset="100%" stop-color="#1a0a3e"/>
    </radialGradient>
  </defs>
  <!-- Background -->
  <rect width="192" height="192" rx="38" ry="38" fill="url(#bg)"/>

  <!-- Stars -->
  <circle cx="28.799999999999997" cy="38.400000000000006" r="2.88" fill="white" opacity="0.8"/>
  <circle cx="153.60000000000002" cy="28.799999999999997" r="2.3040000000000003" fill="white" opacity="0.7"/>
  <circle cx="172.8" cy="134.39999999999998" r="1.92" fill="white" opacity="0.6"/>
  <circle cx="19.200000000000003" cy="144" r="2.496" fill="white" opacity="0.7"/>
  <circle cx="96" cy="15.36" r="2.88" fill="white" opacity="0.8"/>
  <circle cx="134.39999999999998" cy="172.8" r="1.92" fill="white" opacity="0.5"/>

  <!-- Mermaid tail -->
  <ellipse cx="96" cy="138.24" rx="26.880000000000003" ry="32.64" fill="#00e5ff"/>
  <polygon points="69.12,161.28 96,178.56 122.88,161.28" fill="#00acc1"/>

  <!-- Dress -->
  <ellipse cx="96" cy="109.44" rx="34.56" ry="26.880000000000003" fill="#388e3c"/>

  <!-- Body -->
  <ellipse cx="96" cy="84.48" rx="26.880000000000003" ry="24.96" fill="#66bb6a"/>

  <!-- Head -->
  <ellipse cx="96" cy="57.599999999999994" rx="30.72" ry="30.72" fill="#a5d6a7"/>

  <!-- Wig -->
  <ellipse cx="96" cy="38.400000000000006" rx="32.64" ry="19.200000000000003" fill="#d32f2f"/>
  <ellipse cx="69.12" cy="30.72" rx="11.52" ry="19.200000000000003" fill="#c62828"/>
  <ellipse cx="122.88" cy="30.72" rx="11.52" ry="19.200000000000003" fill="#c62828"/>

  <!-- Eyes -->
  <ellipse cx="84.48" cy="55.67999999999999" rx="10.56" ry="11.904" fill="white"/>
  <ellipse cx="107.52000000000001" cy="55.67999999999999" rx="10.56" ry="11.904" fill="white"/>
  <circle cx="84.48" cy="57.599999999999994" r="6.720000000000001" fill="#1a1a2e"/>
  <circle cx="107.52000000000001" cy="57.599999999999994" r="6.720000000000001" fill="#1a1a2e"/>
  <circle cx="87.36" cy="54.72" r="2.496" fill="white"/>
  <circle cx="110.39999999999999" cy="54.72" r="2.496" fill="white"/>

  <!-- Antennae -->
  <line x1="84.48" y1="30.72" x2="72.96000000000001" y2="13.440000000000001" stroke="#81c784" stroke-width="2.88"/>
  <line x1="107.52000000000001" y1="30.72" x2="119.03999999999999" y2="13.440000000000001" stroke="#81c784" stroke-width="2.88"/>
  <circle cx="72.96000000000001" cy="13.440000000000001" r="4.800000000000001" fill="#ff80ab"/>
  <circle cx="119.03999999999999" cy="13.440000000000001" r="4.800000000000001" fill="#ff80ab"/>

  <!-- Ice sparkle -->
  <text x="134.39999999999998" y="105.60000000000001" font-size="38.400000000000006" text-anchor="middle" opacity="0.9">❄</text>
</svg>